HIERARCHY
ROOT Hips
{
	OFFSET 0.000000 0.000000 0.000000
	CHANNELS 6 Xposition Yposition Zposition Xrotation Yrotation Zrotation
	JOINT LeftUpLeg_virtual
	{
		OFFSET 0.000000 0.000000 0.000000
		CHANNELS 3 Xrotation Yrotation Zrotation
		JOINT LeftUpLeg
		{
			OFFSET 13.026900 -6.336304 -1.092800
			CHANNELS 3 Xrotation Yrotation Zrotation
			JOINT LeftLeg
			{
				OFFSET 0.524474 -46.096886 9.782700
				CHANNELS 3 Xrotation Yrotation Zrotation
				JOINT LeftFoot
				{
					OFFSET -0.524474 -53.427422 -12.948200
					CHANNELS 3 Xrotation Yrotation Zrotation
					JOINT LeftToeBase
					{
						OFFSET 0.192200 -14.009700 16.364100
						CHANNELS 3 Xrotation Yrotation Zrotation
						JOINT LeftToe_End
						{
							OFFSET -1.784700 -0.561700 9.474800
							CHANNELS 3 Xrotation Yrotation Zrotation
							End Site
							{
								OFFSET 0 0 0
							}
						}
					}
				}
			}
		}
	}
	JOINT RightUpLeg_virtual
	{
		OFFSET 0.000000 0.000000 0.000000
		CHANNELS 3 Xrotation Yrotation Zrotation
		JOINT RightUpLeg
		{
			OFFSET -12.883000 -6.336304 -1.092800
			CHANNELS 3 Xrotation Yrotation Zrotation
			JOINT RightLeg
			{
				OFFSET -0.524587 -46.096825 9.782800
				CHANNELS 3 Xrotation Yrotation Zrotation
				JOINT RightFoot
				{
					OFFSET 0.524587 -53.427383 -12.948300
					CHANNELS 3 Xrotation Yrotation Zrotation
					JOINT RightToeBase
					{
						OFFSET -0.192200 -14.009700 16.364100
						CHANNELS 3 Xrotation Yrotation Zrotation
						JOINT RightToe_End
						{
							OFFSET 1.784700 -0.561700 9.474800
							CHANNELS 3 Xrotation Yrotation Zrotation
							End Site
							{
								OFFSET 0 0 0
							}
						}
					}
				}
			}
		}
	}
	JOINT Spine_virtual
	{
		OFFSET 0.000000 0.000000 0.000000
		CHANNELS 3 Xrotation Yrotation Zrotation
		JOINT Spine
		{
			OFFSET 0.072000 7.257294 -0.789700
			CHANNELS 3 Xrotation Yrotation Zrotation
			JOINT Spine1
			{
				OFFSET 0.000000 12.508769 -0.658067
				CHANNELS 3 Xrotation Yrotation Zrotation
				JOINT Spine1_split
				{
					OFFSET 0.000000 12.508769 -0.658067
					CHANNELS 3 Xrotation Yrotation Zrotation
					JOINT Spine2
					{
						OFFSET 0.000000 12.508769 -0.658067
						CHANNELS 3 Xrotation Yrotation Zrotation
						JOINT Neck_virtual
						{
							OFFSET 0.000000 0.000000 0.000000
							CHANNELS 3 Xrotation Yrotation Zrotation
							JOINT Neck
							{
								OFFSET 0.000000 14.033295 7.520400
								CHANNELS 3 Xrotation Yrotation Zrotation
								JOINT Head
								{
									OFFSET 0.000000 8.198502 5.703100
									CHANNELS 3 Xrotation Yrotation Zrotation
									JOINT HeadTop_End
									{
										OFFSET 0.000000 17.760803 13.332701
										CHANNELS 3 Xrotation Yrotation Zrotation
										End Site
										{
											OFFSET 0 0 0
										}
									}
								}
							}
						}
						JOINT LeftShoulder_virtual
						{
							OFFSET 0.000000 0.000000 0.000000
							CHANNELS 3 Xrotation Yrotation Zrotation
							JOINT LeftShoulder
							{
								OFFSET 6.292450 5.785301 -0.669000
								CHANNELS 3 Xrotation Yrotation Zrotation
								JOINT LeftShoulder_split
								{
									OFFSET 6.292450 5.785301 -0.669000
									CHANNELS 3 Xrotation Yrotation Zrotation
									JOINT LeftArm
									{
										OFFSET 13.907140 -6.093903 1.965100
										CHANNELS 3 Xrotation Yrotation Zrotation
										JOINT LeftForeArm
										{
											OFFSET 34.140198 0.000000 0.000000
											CHANNELS 3 Xrotation Yrotation Zrotation
											JOINT LeftHand
											{
												OFFSET 40.960209 0.000000 0.000000
												CHANNELS 3 Xrotation Yrotation Zrotation
												End Site
												{
													OFFSET 0 0 0
												}
											}
										}
									}
								}
							}
						}
						JOINT RightShoulder_virtual
						{
							OFFSET 0.000000 0.000000 0.000000
							CHANNELS 3 Xrotation Yrotation Zrotation
							JOINT RightShoulder
							{
								OFFSET -6.292450 5.785301 -0.669000
								CHANNELS 3 Xrotation Yrotation Zrotation
								JOINT RightShoulder_split
								{
									OFFSET -6.292450 5.785301 -0.669000
									CHANNELS 3 Xrotation Yrotation Zrotation
									JOINT RightArm
									{
										OFFSET -13.907140 -6.093903 1.965100
										CHANNELS 3 Xrotation Yrotation Zrotation
										JOINT RightForeArm
										{
											OFFSET -34.140198 0.000000 0.000000
											CHANNELS 3 Xrotation Yrotation Zrotation
											JOINT RightHand
											{
												OFFSET -40.960209 0.000000 0.000000
												CHANNELS 3 Xrotation Yrotation Zrotation
												End Site
												{
													OFFSET 0 0 0
												}
											}
										}
									}
								}
							}
						}
					}
				}
			}
		}
	}
}
MOTION
Frames: 5
Frame Time: 0.03333333
7.699677 66.713402 141.223007 0.000000 0.000000 0.000000 14.997041 -48.267123 21.369640 -60.696831 -27.708247 39.358975 66.921592 -23.389897 -8.777141 8.123411 8.587324 -25.529060 -4.890173 -5.891054 -3.502578 0.000000 0.000000 0.000000 10.609258 -46.776202 20.027064 -75.095444 23.094816 -19.601617 92.058280 10.063662 -2.832661 -14.665839 -11.789432 33.359846 5.011443 10.359798 -10.025995 0.000000 0.000000 0.000000 8.245712 -43.659071 17.451497 28.975421 5.895195 -10.175419 4.088940 -3.577839 -1.592873 0.332556 -0.495305 0.253807 0.000000 0.000000 0.000000 3.901515 0.238541 -1.097561 -4.357783 26.179664 -5.038161 -38.659158 14.016691 -1.664219 0.000000 0.000000 0.000000 5.730880 -2.523269 -2.521838 5.297521 -21.234087 4.752551 -3.098591 7.685045 -5.308955 -25.870378 11.054310 -31.578929 -28.101645 -63.666106 -17.781148 0.000000 0.000000 0.000000 8.629855 -0.077052 -0.351277 -1.642996 28.980773 10.282443 13.555830 2.623705 8.647623 -67.215741 -11.361192 21.921928 -15.696191 47.115150 12.314605 0.000000 0.000000 0.000000 
7.915287 65.442337 144.379227 0.000000 0.000000 0.000000 15.443275 -47.235546 21.780893 -61.821231 -27.035096 38.767775 68.214691 -21.858511 -10.325129 5.344665 10.912526 -23.003304 -3.970585 -5.693318 -5.017457 0.000000 0.000000 0.000000 11.245803 -46.457359 20.526633 -73.938136 22.912913 -20.642447 90.714618 9.893775 -2.779599 -16.486465 -12.803623 37.414417 5.491388 10.173666 -8.873532 0.000000 0.000000 0.000000 7.635630 -42.619957 17.024583 30.087328 5.245031 -11.896294 4.422921 -3.103556 -0.675553 0.316393 -0.407754 0.293424 0.000000 0.000000 0.000000 4.303284 0.739493 -0.256331 -7.388004 27.519894 -5.741937 -37.845528 14.936058 -0.971013 0.000000 0.000000 0.000000 6.525023 -2.024126 -1.489095 5.322248 -22.340442 3.322556 -4.030487 6.015324 -4.825835 -24.098463 9.937839 -32.326906 -27.610273 -62.392357 -15.613401 0.000000 0.000000 0.000000 8.964012 0.257571 0.401438 -1.473678 28.911334 10.750743 13.183509 3.920490 9.467877 -65.537318 -9.132889 24.900679 -14.931043 49.184482 12.089550 0.000000 0.000000 0.000000 
7.625826 65.346069 146.910248 0.000000 0.000000 0.000000 15.490956 -46.929465 21.910407 -60.675849 -24.597425 37.935953 67.674874 -19.311798 -12.133910 0.937861 13.559444 -18.133903 -3.644391 -5.495027 -6.556011 0.000000 0.000000 0.000000 11.413762 -45.851644 20.664228 -71.813558 21.469434 -21.762485 89.674885 10.047965 -3.295491 -19.073085 -13.941072 40.119517 6.402526 9.953980 -7.238274 0.000000 0.000000 0.000000 7.653740 -41.498225 16.704238 30.221903 4.913470 -12.628668 4.598318 -2.682796 -0.150854 0.300758 -0.275526 0.264310 0.000000 0.000000 0.000000 4.740785 1.111106 0.203133 -10.087535 28.819590 -6.371239 -37.875885 15.531425 -0.543508 0.000000 0.000000 0.000000 7.044908 -1.587769 -0.884917 4.930446 -22.754263 1.243885 -4.625719 4.366079 -4.293284 -24.192525 10.683973 -32.455707 -25.673260 -63.428135 -12.607809 0.000000 0.000000 0.000000 9.173117 0.460657 0.775066 -1.465579 27.915530 11.096321 12.626972 4.575846 9.836803 -64.867543 -8.009391 26.778962 -15.172411 54.195236 12.930368 0.000000 0.000000 0.000000 
7.109024 66.494431 148.722137 0.000000 0.000000 0.000000 15.237718 -47.253718 21.816975 -58.170064 -21.014670 36.871875 65.987776 -16.619105 -13.781981 -4.023234 15.226706 -12.369307 -3.310784 -5.338274 -7.869875 0.000000 0.000000 0.000000 11.202618 -45.092253 20.416315 -68.969782 19.055435 -22.885899 88.623385 10.443227 -4.254541 -21.659496 -14.890139 40.923977 7.055737 9.724256 -5.270405 0.000000 0.000000 0.000000 8.490928 -40.378507 16.612000 29.475377 4.769378 -12.597439 4.621798 -2.414277 -0.004865 0.221177 -0.216861 0.223790 0.000000 0.000000 0.000000 5.257278 1.280204 0.314540 -12.439178 29.980716 -6.795730 -39.128941 15.721256 -0.388342 0.000000 0.000000 0.000000 7.313933 -1.291057 -0.680250 4.177869 -22.661263 -1.250456 -4.787799 2.827711 -3.620564 -25.523898 12.000617 -32.280488 -20.892526 -65.387129 -7.646269 0.000000 0.000000 0.000000 9.280520 0.478890 0.820552 -1.587382 25.966796 11.333220 11.797404 4.385947 9.935309 -64.757823 -8.255271 27.983343 -16.210710 60.335309 14.420652 0.000000 0.000000 0.000000 
6.494606 68.760017 150.331528 0.000000 0.000000 0.000000 14.707064 -47.513241 21.451365 -55.128598 -17.170114 35.639534 63.597824 -14.654579 -14.950883 -8.383454 15.260313 -7.191698 -2.556994 -5.305069 -8.594198 0.000000 0.000000 0.000000 10.763062 -44.608966 19.795324 -65.734465 15.995676 -23.992819 86.769289 10.995554 -5.401609 -23.157526 -15.305855 40.127040 6.784412 9.533186 -3.180688 0.000000 0.000000 0.000000 9.617615 -39.310126 16.614036 28.103650 4.656794 -12.125460 4.594178 -2.310869 -0.193734 0.185755 -0.226936 0.159017 0.000000 0.000000 0.000000 5.912751 1.273990 0.140110 -14.660108 30.749853 -6.577305 -41.416778 15.420346 -0.393563 0.000000 0.000000 0.000000 7.440308 -1.197328 -0.790108 3.250101 -22.216036 -3.541590 -4.447279 1.580633 -2.667125 -27.457784 12.832694 -31.968328 -12.245631 -66.206485 0.165838 0.000000 0.000000 0.000000 9.349644 0.338394 0.619046 -1.788782 23.374782 11.439907 10.313486 3.684428 10.156458 -64.667937 -9.834807 28.786502 -17.786847 66.161543 16.204156 0.000000 0.000000 0.000000 
